<?xml version="1.0" encoding="utf-8"?>
<!-- Generator: Adobe Illustrator 16.0.0, SVG Export Plug-In . SVG Version: 6.00 Build 0)  -->
<!DOCTYPE svg PUBLIC "-//W3C//DTD SVG 1.1//EN" "http://www.w3.org/Graphics/SVG/1.1/DTD/svg11.dtd">
<svg version="1.1" xmlns="http://www.w3.org/2000/svg" xmlns:xlink="http://www.w3.org/1999/xlink" x="0px" y="0px" width="197px"
	 height="197px" viewBox="0 0 197 197" enable-background="new 0 0 197 197" xml:space="preserve">
<g id="Layer_1" display="none">
	<path display="inline" fill="#9D91C6" stroke="#17212B" stroke-width="5" stroke-miterlimit="10" d="M194.5,182.22
		c0,6.781-5.497,12.28-12.28,12.28H14.781c-6.782,0-12.281-5.499-12.281-12.28V14.78C2.5,7.998,7.999,2.5,14.781,2.5H182.22
		c6.783,0,12.28,5.498,12.28,12.28V182.22z"/>
	<rect x="26.538" y="35.299" display="inline" fill="none" width="71.962" height="142.523"/>
	
		<text transform="matrix(-1 0 0 1 98.501 119.6582)" display="inline" fill="#17212B" font-family="'QuattrocentoRoman'" font-size="114">P</text>
	<rect x="88.038" y="35.298" display="inline" fill="none" width="83.878" height="102.803"/>
	<text transform="matrix(1 0 0 1 88.0376 119.6572)" display="inline" font-family="'QuattrocentoRoman'" font-size="114">B</text>
	<rect x="31.836" y="137.168" display="inline" fill="none" width="132.943" height="29.907"/>
	<text transform="matrix(1 0 0 1 31.8364 158.6279)" display="inline" font-family="'QuattrocentoRoman'" font-size="29">university</text>
</g>
<g id="Layer_2">
	<path fill="none" stroke="#E2E2E2" stroke-width="5" stroke-miterlimit="10" d="M194.309,182.22c0,6.781-5.496,12.28-12.279,12.28
		H14.59c-6.782,0-12.281-5.499-12.281-12.28V14.78C2.309,7.998,7.808,2.5,14.59,2.5h167.439c6.783,0,12.279,5.498,12.279,12.28
		V182.22z"/>
	<rect x="25.812" y="50.084" fill="none" width="71.963" height="142.523"/>
	<text transform="matrix(-1 0 0 1 97.7744 134.4434)" fill="#E2E2E3" font-family="'QuattrocentoRoman'" font-size="114">P</text>
	<rect x="87.312" y="50.083" fill="none" width="83.878" height="102.803"/>
	<text transform="matrix(1 0 0 1 87.3115 134.4424)" fill="#E2E2E3" font-family="'QuattrocentoRoman'" font-size="114">B</text>
	<rect x="31.646" y="138.168" fill="none" width="132.942" height="29.907"/>
	
		<text transform="matrix(1 0 0 1 31.6455 159.6279)" display="none" fill="#E2E2E3" font-family="'QuattrocentoRoman'" font-size="29">university</text>
</g>
</svg>
