<?xml version="1.0" encoding="utf-8"?>
<!-- Generator: Adobe Illustrator 16.0.0, SVG Export Plug-In . SVG Version: 6.00 Build 0)  -->
<!DOCTYPE svg PUBLIC "-//W3C//DTD SVG 1.1//EN" "http://www.w3.org/Graphics/SVG/1.1/DTD/svg11.dtd">
<svg version="1.1" id="Layer_1" xmlns="http://www.w3.org/2000/svg" xmlns:xlink="http://www.w3.org/1999/xlink" x="0px" y="0px"
	 width="42.398px" height="27.199px" viewBox="0 0 42.398 27.199" enable-background="new 0 0 42.398 27.199" xml:space="preserve">
<g>
	<path fill="#FAFAFA" d="M1.602,3.199h39.199c0.883,0,1.598-0.715,1.598-1.597C42.398,0.719,41.684,0,40.801,0H1.602
		C0.719,0,0,0.719,0,1.602C0,2.484,0.719,3.199,1.602,3.199L1.602,3.199z M1.602,3.199"/>
	<path fill="#FAFAFA" d="M1.602,15.199h39.199c0.883,0,1.598-0.715,1.598-1.598c0-0.882-0.715-1.602-1.598-1.602H1.602
		C0.719,12,0,12.719,0,13.602C0,14.484,0.719,15.199,1.602,15.199L1.602,15.199z M1.602,15.199"/>
	<path fill="#FAFAFA" d="M1.602,27.199h39.199c0.883,0,1.598-0.715,1.598-1.597c0-0.884-0.715-1.603-1.598-1.603H1.602
		C0.719,24,0,24.719,0,25.603C0,26.484,0.719,27.199,1.602,27.199L1.602,27.199z M1.602,27.199"/>
</g>
</svg>
